<?xml version="1.0" standalone="no"?>
<svg viewBox="13.623 91.876 468.278 361.797" width="468.278" height="361.797"
     xmlns="http://www.w3.org/2000/svg">
  <path fill="#293241" d="M 82.924 291.031 C 82.924 291.031 82.38 290.433 81.296 289.24 C 80.209 288.03 79.309 285.882 78.597 282.794 C 77.882 279.707 77.433 276.768 77.247 273.976 C 77.075 271.183 77.038 268.391 77.131 265.599 C 77.224 262.823 77.294 259.975 77.34 257.06 C 77.37 254.128 77.48 250.933 77.666 247.473 C 77.852 243.999 78.145 240.423 78.55 236.746 C 78.953 233.07 79.658 228.689 80.667 223.6 C 81.675 218.511 82.985 213.415 84.6 208.313 C 86.212 203.224 88.034 198.261 90.068 193.421 C 92.083 188.581 94.884 183.292 98.468 177.552 C 102.065 171.812 105.548 166.802 108.915 162.521 C 112.28 158.256 115.809 154.323 119.502 150.724 C 123.193 147.124 127.041 143.852 131.043 140.904 C 135.029 137.942 139.148 135.243 143.399 132.807 C 147.634 130.357 152.038 128.17 156.615 126.245 C 161.19 124.321 166.471 122.515 172.461 120.824 C 178.464 119.149 184.179 118.015 189.609 117.427 C 195.054 116.838 200.343 116.666 205.478 116.915 C 210.611 117.164 215.7 117.862 220.742 119.009 C 225.799 120.156 231.134 121.917 236.751 124.291 C 242.382 126.664 247.385 129.231 251.759 131.993 C 256.117 134.769 260.103 137.7 263.719 140.788 C 267.332 143.876 270.683 147.11 273.771 150.491 C 276.856 153.858 279.695 157.418 282.287 161.171 C 284.86 164.91 287.28 169.548 289.547 175.085 C 291.794 180.623 293.556 185.735 294.829 190.419 C 296.085 195.103 297 199.773 297.574 204.427 C 298.147 209.097 298.542 213.471 298.761 217.55 C 298.994 221.615 299.001 226.152 298.784 231.162 C 298.565 236.158 298.24 240.632 297.807 244.588 C 297.388 248.527 296.923 252.166 296.411 255.501 C 295.899 258.821 295.457 261.713 295.085 264.18 C 294.726 266.646 293.602 269.252 291.711 271.998 C 289.803 274.76 288.825 276.302 288.779 276.628 C 288.732 276.938 288.63 277.24 288.476 277.536 C 288.32 277.831 288.118 278.094 287.871 278.327 C 287.639 278.543 287.373 278.722 287.08 278.862 C 286.768 279.002 286.452 279.088 286.126 279.118 C 285.8 279.164 285.475 279.148 285.149 279.071 C 284.837 279.009 284.535 278.892 284.242 278.722 C 283.962 278.552 283.713 278.343 283.497 278.094 C 283.295 277.831 283.132 277.552 283.008 277.256 C 282.883 276.947 282.813 276.628 282.799 276.302 C 282.783 275.977 282.813 275.651 282.892 275.325 C 282.985 275.016 283.125 274.72 283.311 274.441 C 283.497 274.162 283.72 273.929 283.986 273.743 C 284.249 273.541 284.535 273.387 284.846 273.278 C 285.156 273.168 285.475 273.115 285.8 273.115 C 286.126 273.115 286.443 273.168 286.754 273.278 C 287.08 273.387 287.366 273.534 287.615 273.72 C 287.878 273.922 288.104 274.162 288.29 274.441 C 288.476 274.704 288.616 274.999 288.709 275.325 C 288.802 275.635 288.839 275.96 288.825 276.302 C 288.793 276.628 288.723 276.947 288.616 277.256 C 288.49 277.552 288.32 277.831 288.104 278.094 C 287.885 278.343 287.639 278.552 287.359 278.722 C 287.08 278.892 286.778 279.009 286.452 279.071 C 286.126 279.148 285.8 279.171 285.475 279.141 C 285.149 279.095 284.837 279.002 284.544 278.862 C 284.232 278.722 283.962 278.543 283.73 278.327 C 283.497 278.094 283.301 277.831 283.148 277.536 C 282.992 277.256 282.883 276.954 282.822 276.628 C 282.776 276.302 282.752 276.14 282.752 276.14 C 282.752 276.14 281.798 274.332 279.89 270.718 C 277.996 267.105 277.238 264.04 277.61 261.527 C 277.996 259.03 278.431 256.238 278.913 253.151 C 279.409 250.079 279.858 246.752 280.263 243.168 C 280.681 239.585 281.007 235.59 281.24 231.185 C 281.487 226.781 281.519 222.716 281.333 218.993 C 281.147 215.286 280.851 211.5 280.449 207.638 C 280.044 203.792 279.323 199.843 278.285 195.794 C 277.245 191.746 275.895 187.511 274.236 183.09 C 272.591 178.669 270.73 174.906 268.652 171.805 C 266.588 168.717 264.261 165.725 261.671 162.823 C 259.079 159.938 256.303 157.192 253.341 154.586 C 250.393 151.98 247.152 149.507 243.615 147.164 C 240.078 144.837 235.983 142.643 231.329 140.579 C 226.66 138.501 222.292 136.956 218.229 135.948 C 214.164 134.941 210.023 134.296 205.804 134.017 C 201.569 133.738 197.202 133.801 192.704 134.203 C 188.19 134.606 183.271 135.522 177.952 136.949 C 172.631 138.375 168 139.888 164.061 141.486 C 160.105 143.085 156.266 144.93 152.543 147.024 C 148.82 149.118 145.244 151.382 141.816 153.818 C 138.387 156.254 135.076 158.984 131.881 162.009 C 128.67 165.05 125.543 168.454 122.504 172.223 C 119.463 176.009 116.352 180.36 113.173 185.277 C 109.992 190.194 107.472 194.833 105.611 199.191 C 103.764 203.566 102.111 207.994 100.655 212.478 C 99.196 216.975 98.002 221.536 97.072 226.159 C 96.141 230.797 95.48 234.792 95.094 238.142 C 94.705 241.477 94.426 244.774 94.256 248.032 C 94.1 251.273 94 254.43 93.954 257.502 C 93.907 260.557 93.837 263.209 93.744 265.459 C 93.635 267.709 93.619 270.562 93.698 274.022 C 93.758 277.466 94.047 279.869 94.559 281.235 C 95.07 282.601 95.45 283.546 95.699 284.074 C 95.945 284.602 96.132 285.161 96.257 285.749 C 96.364 286.324 96.411 286.906 96.397 287.494 C 96.364 288.083 96.264 288.658 96.094 289.216 C 95.922 289.775 95.689 290.31 95.396 290.822 C 95.101 291.334 94.752 291.799 94.349 292.218 C 93.944 292.637 93.495 293.009 93 293.335 C 92.502 293.644 91.976 293.886 91.417 294.056 C 90.859 294.242 90.284 294.359 89.696 294.405 C 89.104 294.452 88.523 294.428 87.95 294.335 C 87.359 294.226 86.794 294.056 86.252 293.823 C 85.707 293.591 85.205 293.295 84.739 292.939 C 84.274 292.583 83.855 292.178 83.483 291.729 C 83.111 291.264 82.924 291.031 82.924 291.031 Z" style="" transform="matrix(0.583679, 0.811985, -0.811985, 0.583679, 245.230518, -67.059876)"></path>
  <path fill="#293241" d="M 167.565 324.877 C 167.565 324.877 168.379 325.126 170.008 325.622 C 171.621 326.12 173.133 326.818 174.546 327.716 C 175.972 328.633 179.004 330.192 183.643 332.393 C 188.297 334.58 192.33 336.288 195.743 337.512 C 199.154 338.722 201.893 339.559 203.957 340.025 C 206.018 340.506 208.238 340.825 210.611 340.979 C 212.985 341.135 215.651 341.165 218.616 341.072 C 221.578 340.995 224.563 340.639 227.574 340.001 C 230.566 339.366 233.856 338.598 237.44 337.698 C 241.007 336.783 245.148 335.511 249.865 333.882 C 254.595 332.253 259.079 330.617 263.314 328.972 C 267.549 327.33 271.597 325.552 275.46 323.644 C 279.323 321.736 283.092 319.565 286.768 317.129 C 290.445 314.679 293.982 312.089 297.379 309.357 C 300.79 306.628 304.522 303.3 308.571 299.375 C 312.619 295.436 316.28 291.627 319.553 287.95 C 322.811 284.26 325.733 280.714 328.326 277.317 C 330.932 273.92 333.445 270.602 335.864 267.358 C 338.268 264.117 340.734 260.517 343.264 256.561 C 345.791 252.606 348.104 249.023 350.198 245.812 C 352.292 242.6 355.098 240.064 358.621 238.203 C 362.141 236.358 364.019 235.318 364.252 235.085 C 364.484 234.852 364.74 234.659 365.02 234.503 C 365.313 234.35 365.625 234.24 365.95 234.177 C 366.276 234.131 366.602 234.14 366.928 234.201 C 367.253 234.247 367.563 234.35 367.858 234.503 C 368.151 234.659 368.407 234.861 368.626 235.108 C 368.859 235.341 369.045 235.613 369.185 235.922 C 369.308 236.218 369.394 236.527 369.441 236.853 C 369.471 237.179 369.448 237.505 369.371 237.83 C 369.292 238.156 369.168 238.459 368.998 238.738 C 368.826 239.017 368.617 239.266 368.37 239.483 C 368.121 239.685 367.842 239.848 367.533 239.971 C 367.221 240.097 366.904 240.167 366.579 240.181 C 366.253 240.197 365.927 240.157 365.601 240.064 C 365.289 239.971 364.996 239.832 364.717 239.645 C 364.452 239.459 364.219 239.236 364.019 238.971 C 363.817 238.708 363.67 238.422 363.577 238.11 C 363.468 237.8 363.414 237.481 363.414 237.156 C 363.414 236.83 363.468 236.514 363.577 236.202 C 363.684 235.876 363.84 235.59 364.042 235.341 C 364.242 235.078 364.475 234.852 364.74 234.666 C 365.02 234.48 365.322 234.34 365.648 234.247 C 365.957 234.17 366.276 234.14 366.602 234.154 C 366.928 234.17 367.244 234.24 367.556 234.364 C 367.865 234.489 368.144 234.659 368.393 234.875 C 368.64 235.094 368.85 235.341 369.022 235.62 C 369.192 235.899 369.308 236.202 369.371 236.527 C 369.448 236.853 369.464 237.179 369.417 237.505 C 369.385 237.83 369.301 238.142 369.161 238.435 C 369.022 238.747 368.952 238.901 368.952 238.901 C 368.952 238.901 368.766 240.825 368.393 244.671 C 368.005 248.52 366.779 252.033 364.717 255.212 C 362.637 258.376 360.217 262.099 357.457 266.381 C 354.695 270.678 352.073 274.478 349.593 277.782 C 347.126 281.086 344.45 284.593 341.565 288.299 C 338.694 292.008 335.476 295.855 331.909 299.84 C 328.339 303.812 324.314 307.938 319.833 312.219 C 315.365 316.5 311.207 320.154 307.361 323.178 C 303.529 326.203 299.464 329.105 295.168 331.881 C 290.871 334.659 286.559 337.093 282.231 339.187 C 277.917 341.267 273.529 343.159 269.061 344.864 C 264.594 346.572 259.768 348.285 254.588 350.007 C 249.423 351.729 244.899 353.064 241.023 354.009 C 237.144 354.956 233.235 355.777 229.296 356.475 C 225.354 357.159 221.608 357.515 218.057 357.546 C 214.504 357.578 211.137 357.429 207.959 357.104 C 204.794 356.764 201.886 356.252 199.233 355.568 C 196.581 354.886 193.284 353.8 189.344 352.31 C 185.403 350.807 180.346 348.355 174.173 344.958 C 168.014 341.546 164.308 339.289 163.051 338.186 C 161.778 337.07 160.924 336.358 160.492 336.046 C 160.056 335.736 159.668 335.371 159.328 334.952 C 158.97 334.55 158.677 334.108 158.444 333.626 C 158.211 333.147 158.032 332.642 157.909 332.113 C 157.799 331.602 157.753 331.076 157.769 330.531 C 157.769 330.005 157.839 329.484 157.979 328.972 C 158.118 328.446 158.318 327.948 158.584 327.483 C 158.846 327.018 159.156 326.592 159.514 326.203 C 159.887 325.801 160.296 325.459 160.747 325.18 C 161.197 324.886 161.669 324.644 162.167 324.458 C 162.679 324.288 163.198 324.172 163.726 324.109 C 164.238 324.063 164.757 324.079 165.285 324.156 C 165.827 324.235 166.346 324.374 166.844 324.575 C 167.323 324.777 167.565 324.877 167.565 324.877 Z" style="" transform="matrix(0.93343, 0.358759, -0.358759, 0.93343, 123.686983, -74.877793)"></path>
  <path fill="#293241" d="M 126.964 380.137 C 126.964 380.137 128.251 380.632 130.827 381.626 C 133.386 382.62 135.681 383.597 137.714 384.558 C 139.762 385.505 141.793 386.287 143.811 386.908 C 145.842 387.513 148.129 388.102 150.675 388.676 C 153.234 389.251 156.01 389.926 159.005 390.701 C 161.997 391.462 165.092 392.05 168.289 392.469 C 171.483 392.872 174.888 393.253 178.504 393.609 C 182.133 393.951 186.608 394.105 191.929 394.075 C 197.265 394.058 202.563 393.888 207.822 393.563 C 213.08 393.237 218.229 392.765 223.272 392.143 C 228.298 391.538 234.012 390.701 240.42 389.63 C 246.842 388.576 252.643 387.297 257.825 385.791 C 263.021 384.272 267.9 382.517 272.461 380.532 C 277.035 378.531 281.512 376.46 285.887 374.32 C 290.245 372.195 294.254 369.883 297.916 367.386 C 301.56 364.889 305.609 361.655 310.062 357.683 C 314.513 353.711 318.679 349.579 322.557 345.281 C 326.434 340.969 330.157 336.625 333.726 332.251 C 337.293 327.876 340.79 323.479 344.22 319.058 C 347.647 314.62 351.261 309.734 355.063 304.399 C 358.879 299.047 363.051 294.805 367.581 291.671 C 372.126 288.537 374.515 286.854 374.748 286.622 C 374.995 286.389 375.267 286.203 375.562 286.063 C 375.856 285.907 376.167 285.807 376.493 285.761 C 376.819 285.731 377.145 285.745 377.47 285.807 C 377.78 285.87 378.082 285.977 378.378 286.133 C 378.657 286.303 378.913 286.512 379.146 286.761 C 379.362 287.01 379.532 287.28 379.658 287.576 C 379.781 287.885 379.858 288.204 379.89 288.53 C 379.921 288.855 379.89 289.181 379.797 289.507 C 379.718 289.816 379.595 290.112 379.425 290.391 C 379.239 290.67 379.02 290.91 378.773 291.112 C 378.508 291.315 378.222 291.478 377.913 291.601 C 377.601 291.71 377.284 291.771 376.959 291.787 C 376.633 291.787 376.307 291.741 375.981 291.648 C 375.669 291.538 375.383 291.392 375.12 291.206 C 374.855 291.003 374.622 290.77 374.422 290.508 C 374.236 290.245 374.097 289.956 374.003 289.647 C 373.91 289.321 373.864 288.995 373.864 288.669 C 373.878 288.344 373.941 288.025 374.05 287.715 C 374.173 287.406 374.336 287.117 374.539 286.854 C 374.739 286.605 374.981 286.396 375.26 286.226 C 375.539 286.04 375.842 285.907 376.167 285.831 C 376.493 285.754 376.819 285.731 377.145 285.761 C 377.47 285.791 377.78 285.87 378.075 285.993 C 378.385 286.133 378.664 286.312 378.913 286.529 C 379.146 286.745 379.346 287.001 379.518 287.297 C 379.672 287.576 379.781 287.878 379.844 288.204 C 379.904 288.53 379.914 288.855 379.867 289.181 C 379.821 289.507 379.727 289.816 379.588 290.112 C 379.432 290.407 379.355 290.554 379.355 290.554 C 379.355 290.554 378.587 293.19 377.052 298.465 C 375.516 303.74 372.761 309.129 368.791 314.637 C 364.819 320.144 361.066 325.161 357.53 329.691 C 353.993 334.205 350.34 338.759 346.57 343.35 C 342.801 347.927 338.752 352.58 334.424 357.311 C 330.096 362.027 325.41 366.588 320.37 370.992 C 315.344 375.397 310.658 379.043 306.316 381.929 C 301.972 384.83 297.497 387.39 292.89 389.607 C 288.283 391.841 283.357 394.075 278.115 396.308 C 272.87 398.526 267.332 400.457 261.501 402.102 C 255.668 403.747 249.425 405.104 242.77 406.174 C 236.116 407.244 230.103 408.089 224.738 408.71 C 219.386 409.346 213.918 409.82 208.333 410.13 C 202.733 410.455 197.002 410.611 191.138 410.595 C 185.275 410.579 180.425 410.379 176.596 409.99 C 172.747 409.601 168.924 409.136 165.124 408.594 C 161.322 408.052 157.981 407.407 155.096 406.663 C 152.224 405.918 149.302 405.19 146.324 404.475 C 143.345 403.761 140.506 402.956 137.807 402.056 C 135.122 401.155 132.656 400.155 130.408 399.054 C 128.158 397.967 125.908 396.634 123.66 395.052 C 121.426 393.486 120.068 392.532 119.588 392.19 C 119.123 391.864 118.704 391.492 118.332 391.073 C 117.96 390.638 117.641 390.165 117.378 389.654 C 117.113 389.142 116.912 388.613 116.773 388.071 C 116.647 387.513 116.587 386.947 116.587 386.373 C 116.587 385.798 116.656 385.233 116.796 384.674 C 116.936 384.132 117.145 383.604 117.424 383.092 C 117.687 382.58 118.013 382.115 118.402 381.696 C 118.774 381.277 119.2 380.905 119.681 380.579 C 120.147 380.253 120.649 379.99 121.194 379.788 C 121.72 379.602 122.271 379.469 122.846 379.392 C 123.404 379.329 123.963 379.339 124.521 379.416 C 125.094 379.478 125.645 379.618 126.173 379.834 C 126.699 380.037 126.964 380.137 126.964 380.137 Z" style="" transform="matrix(0.93343, 0.358759, -0.358759, 0.93343, 141.435061, -65.882226)"></path>
  <path fill="#293241" d="M -0.385 276.051 C -0.385 276.051 1.071 276.091 3.989 276.167 C 6.905 276.23 9.767 276.486 12.575 276.935 C 15.367 277.387 18.09 277.773 20.742 278.099 C 23.395 278.424 26.643 278.643 30.492 278.75 C 34.338 278.86 38.138 278.929 41.893 278.96 C 45.663 278.992 49.493 278.922 53.388 278.75 C 57.297 278.58 61.243 278.294 65.231 277.889 C 69.201 277.487 73.831 276.866 79.122 276.028 C 84.428 275.206 89.491 274.369 94.317 273.515 C 99.14 272.677 103.684 271.833 107.952 270.979 C 112.201 270.141 116.172 269.303 119.865 268.466 C 123.555 267.644 127.395 267.598 131.383 268.326 C 135.385 269.071 137.549 269.436 137.875 269.42 C 138.201 269.406 138.526 269.443 138.852 269.536 C 139.162 269.629 139.448 269.769 139.713 269.955 C 139.992 270.157 140.225 270.39 140.411 270.653 C 140.611 270.918 140.76 271.204 140.853 271.514 C 140.96 271.826 141.007 272.151 140.993 272.491 C 140.993 272.817 140.937 273.136 140.83 273.445 C 140.721 273.757 140.558 274.043 140.341 274.306 C 140.139 274.555 139.899 274.771 139.62 274.958 C 139.355 275.144 139.061 275.276 138.736 275.353 C 138.41 275.432 138.084 275.462 137.758 275.446 C 137.433 275.416 137.114 275.339 136.804 275.213 C 136.509 275.09 136.237 274.92 135.99 274.702 C 135.741 274.485 135.532 274.229 135.362 273.934 C 135.206 273.654 135.097 273.352 135.036 273.026 C 134.957 272.7 134.943 272.375 134.99 272.049 C 135.036 271.723 135.129 271.414 135.269 271.118 C 135.408 270.825 135.595 270.56 135.827 270.327 C 136.06 270.08 136.323 269.885 136.618 269.745 C 136.911 269.592 137.223 269.489 137.549 269.443 C 137.875 269.396 138.201 269.406 138.526 269.466 C 138.852 269.529 139.155 269.638 139.434 269.792 C 139.727 269.948 139.983 270.15 140.202 270.397 C 140.434 270.646 140.611 270.918 140.737 271.211 C 140.876 271.523 140.96 271.84 140.993 272.165 C 141.023 272.491 141 272.817 140.923 273.143 C 140.844 273.454 140.714 273.748 140.527 274.027 C 140.355 274.306 140.146 274.555 139.899 274.771 C 139.634 274.974 139.348 275.137 139.038 275.26 C 138.726 275.369 138.58 275.423 138.596 275.423 C 138.596 275.423 136.944 276.526 133.64 278.727 C 130.336 280.93 126.767 282.45 122.937 283.288 C 119.104 284.125 114.993 284.956 110.604 285.777 C 106.23 286.585 101.576 287.392 96.643 288.197 C 91.711 289.005 86.452 289.789 80.868 290.547 C 75.297 291.324 70.381 291.89 66.115 292.246 C 61.864 292.604 57.669 292.828 53.527 292.921 C 49.386 293.014 45.383 293.014 41.521 292.921 C 37.672 292.828 33.617 292.681 29.352 292.479 C 25.1 292.278 21.557 291.983 18.718 291.594 C 15.893 291.222 13.21 290.803 10.667 290.338 C 8.138 289.872 5.439 289.354 2.57 288.779 C -0.269 288.206 -1.921 287.864 -2.386 287.755 C -2.852 287.648 -3.303 287.485 -3.736 287.266 C -4.155 287.05 -4.543 286.787 -4.899 286.475 C -5.272 286.15 -5.597 285.794 -5.877 285.405 C -6.156 285.019 -6.382 284.6 -6.551 284.148 C -6.724 283.699 -6.84 283.234 -6.9 282.752 C -6.963 282.287 -6.97 281.815 -6.924 281.333 C -6.863 280.854 -6.754 280.388 -6.598 279.937 C -6.428 279.488 -6.212 279.069 -5.946 278.68 C -5.667 278.278 -5.351 277.913 -4.992 277.587 C -4.636 277.261 -4.248 276.991 -3.829 276.772 C -3.41 276.54 -2.968 276.363 -2.503 276.237 C -2.037 276.13 -1.565 276.067 -1.083 276.051 C -0.618 276.051 -0.385 276.051 -0.385 276.051 Z" style="" transform="matrix(0.583679, 0.811985, -0.811985, 0.583679, 255.586246, 62.313104)"></path>
  <path fill="#293241" d="M 116.163 127.413 C 116.163 127.413 116.777 127.197 118.001 126.762 C 119.211 126.343 121.05 126.678 123.516 127.762 C 125.968 128.849 127.946 130.285 129.449 132.067 C 130.955 133.835 132.172 135.737 133.102 137.768 C 134.019 139.785 134.871 141.74 135.662 143.631 C 136.453 145.539 137.067 147.301 137.5 148.913 C 137.935 150.528 138.463 152.559 139.082 155.01 C 139.704 157.446 140.185 159.826 140.525 162.153 C 140.867 164.48 141.13 166.769 141.316 169.017 C 141.488 171.267 141.588 173.378 141.619 175.346 C 141.651 177.301 141.675 179.451 141.688 181.791 C 141.705 184.135 141.712 186.71 141.712 189.516 C 141.728 192.309 141.851 194.985 142.084 197.544 C 142.303 200.104 142.396 202.393 142.363 204.408 C 142.333 206.426 142.356 208.776 142.433 211.458 C 142.512 214.144 142.559 216.361 142.573 218.113 C 142.589 219.851 141.758 222.201 140.083 225.163 C 138.408 228.128 137.547 229.771 137.5 230.096 C 137.454 230.422 137.354 230.734 137.198 231.027 C 137.044 231.323 136.849 231.585 136.616 231.818 C 136.383 232.051 136.12 232.237 135.825 232.377 C 135.532 232.516 135.22 232.609 134.894 232.656 C 134.568 232.702 134.243 232.688 133.917 232.609 C 133.591 232.549 133.289 232.432 133.009 232.26 C 132.716 232.107 132.46 231.904 132.242 231.655 C 132.025 231.409 131.855 231.129 131.73 230.818 C 131.606 230.524 131.53 230.206 131.497 229.864 C 131.483 229.538 131.513 229.221 131.59 228.91 C 131.669 228.584 131.799 228.281 131.986 228.002 C 132.172 227.739 132.39 227.5 132.637 227.281 C 132.902 227.081 133.189 226.925 133.498 226.815 C 133.81 226.708 134.126 226.653 134.452 226.653 C 134.794 226.639 135.12 226.685 135.429 226.792 C 135.741 226.885 136.027 227.034 136.29 227.234 C 136.555 227.42 136.788 227.653 136.988 227.932 C 137.174 228.198 137.314 228.491 137.407 228.817 C 137.5 229.128 137.54 229.445 137.523 229.771 C 137.509 230.096 137.447 230.415 137.337 230.725 C 137.214 231.036 137.051 231.323 136.849 231.585 C 136.632 231.834 136.383 232.044 136.104 232.214 C 135.825 232.386 135.532 232.509 135.22 232.586 C 134.894 232.665 134.568 232.688 134.243 232.656 C 133.917 232.626 133.6 232.549 133.289 232.423 C 132.995 232.284 132.723 232.107 132.474 231.888 C 132.228 231.655 132.025 231.399 131.869 231.12 C 131.716 230.827 131.606 230.515 131.544 230.189 C 131.483 229.864 131.45 229.701 131.45 229.701 C 131.45 229.717 130.334 228.244 128.1 225.28 C 125.866 222.318 124.742 219.991 124.726 218.299 C 124.726 216.61 124.703 214.662 124.656 212.459 C 124.61 210.242 124.54 208.271 124.447 206.549 C 124.34 204.827 124.323 203.098 124.4 201.36 C 124.463 199.638 124.409 197.125 124.237 193.821 C 124.051 190.517 123.967 187.648 123.981 185.212 C 123.981 182.792 123.981 180.567 123.981 178.534 C 123.981 176.503 123.944 174.378 123.865 172.158 C 123.788 169.941 123.609 167.777 123.33 165.666 C 123.051 163.572 122.688 161.564 122.236 159.64 C 121.803 157.718 121.198 155.428 120.421 152.776 C 119.63 150.14 118.941 147.727 118.35 145.539 C 117.745 143.352 116.931 141.886 115.907 141.142 C 114.9 140.397 114.148 139.964 113.65 139.839 C 113.155 139.699 112.682 139.506 112.231 139.257 C 111.782 139.01 111.363 138.715 110.974 138.373 C 110.602 138.017 110.276 137.628 109.997 137.209 C 109.718 136.777 109.494 136.318 109.322 135.837 C 109.152 135.357 109.036 134.859 108.973 134.347 C 108.927 133.852 108.943 133.347 109.02 132.835 C 109.083 132.323 109.215 131.827 109.415 131.346 C 109.602 130.88 109.844 130.438 110.137 130.019 C 110.448 129.601 110.798 129.228 111.184 128.903 C 111.572 128.563 111.998 128.274 112.464 128.042 C 112.929 127.825 113.411 127.655 113.906 127.53 C 114.404 127.423 114.9 127.376 115.395 127.39 C 115.907 127.406 116.163 127.413 116.163 127.413 Z" style="" transform="matrix(0.583679, 0.811985, -0.811985, 0.583679, 198.217319, -27.329676)"></path>
  <path fill="#293241" d="M 130.292 192.437 C 130.292 192.437 130.431 191.832 130.711 190.622 C 130.99 189.398 132.395 187.823 134.922 185.898 C 137.435 183.976 139.848 182.766 142.159 182.268 C 144.471 181.773 146.526 181.361 148.325 181.035 C 150.126 180.695 152.35 180.47 155.003 180.36 C 157.655 180.267 160.433 180.191 163.333 180.128 C 166.218 180.081 169.143 180.028 172.105 179.965 C 175.083 179.904 177.443 179.865 179.178 179.849 C 180.916 179.835 182.715 179.818 184.577 179.802 C 186.438 179.788 188.386 179.695 190.417 179.523 C 192.451 179.337 194.535 179.127 196.676 178.895 C 198.817 178.662 201.09 178.485 203.494 178.359 C 205.9 178.236 207.961 178.073 209.683 177.871 C 211.421 177.671 213.229 177.445 215.105 177.196 C 216.966 176.949 219.146 176.754 221.643 176.614 C 224.142 176.475 226.632 176.228 229.112 175.87 C 231.578 175.514 233.752 175.181 235.627 174.869 C 237.521 174.56 239.948 174.055 242.91 173.357 C 245.858 172.645 249.744 172.519 254.568 172.984 C 259.407 173.436 261.99 173.659 262.316 173.659 C 262.642 173.659 262.96 173.715 263.27 173.822 C 263.582 173.931 263.868 174.087 264.131 174.287 C 264.396 174.49 264.619 174.73 264.806 175.009 C 264.978 175.274 265.108 175.567 265.201 175.893 C 265.294 176.219 265.327 176.544 265.294 176.87 C 265.28 177.196 265.21 177.515 265.085 177.824 C 264.961 178.12 264.792 178.392 264.573 178.639 C 264.356 178.904 264.108 179.113 263.828 179.267 C 263.549 179.439 263.247 179.562 262.921 179.639 C 262.595 179.702 262.269 179.718 261.944 179.686 C 261.618 179.639 261.308 179.546 261.013 179.406 C 260.703 179.267 260.431 179.081 260.198 178.848 C 259.966 178.632 259.773 178.376 259.617 178.08 C 259.463 177.787 259.361 177.475 259.314 177.149 C 259.268 176.824 259.268 176.498 259.314 176.172 C 259.377 175.846 259.486 175.537 259.64 175.241 C 259.796 174.962 259.989 174.706 260.222 174.474 C 260.471 174.257 260.743 174.078 261.036 173.938 C 261.348 173.799 261.664 173.715 261.99 173.682 C 262.316 173.652 262.642 173.668 262.967 173.729 C 263.279 173.808 263.572 173.931 263.852 174.101 C 264.147 174.273 264.396 174.49 264.596 174.753 C 264.815 175.002 264.985 175.281 265.108 175.59 C 265.217 175.886 265.28 176.205 265.294 176.544 C 265.31 176.87 265.28 177.189 265.201 177.498 C 265.108 177.824 264.968 178.12 264.782 178.383 C 264.596 178.662 264.373 178.904 264.108 179.104 C 263.845 179.29 263.549 179.439 263.223 179.546 C 262.914 179.655 262.758 179.709 262.758 179.709 C 262.758 179.709 261.767 181.068 259.78 183.781 C 257.795 186.496 255.964 188.148 254.288 188.737 C 252.613 189.342 250.03 190.033 246.54 190.808 C 243.036 191.585 240.267 192.127 238.233 192.437 C 236.186 192.762 233.673 193.111 230.694 193.484 C 227.716 193.856 225.212 194.082 223.179 194.159 C 221.131 194.238 219.116 194.391 217.129 194.624 C 215.128 194.873 213.08 195.099 210.986 195.299 C 208.892 195.501 206.814 195.634 204.75 195.694 C 202.689 195.773 200.492 195.92 198.165 196.136 C 195.855 196.369 193.474 196.555 191.022 196.695 C 188.588 196.834 186.438 196.897 184.577 196.881 C 182.715 196.867 180.916 196.851 179.178 196.834 C 177.443 196.82 175.092 196.781 172.128 196.718 C 169.182 196.671 166.281 196.625 163.426 196.578 C 160.587 196.548 157.748 196.525 154.91 196.509 C 152.071 196.478 149.474 196.588 147.115 196.834 C 144.758 197.067 143.082 197.542 142.089 198.254 C 141.081 198.952 140.413 199.496 140.088 199.883 C 139.762 200.255 139.399 200.59 138.994 200.883 C 138.591 201.162 138.156 201.395 137.691 201.581 C 137.226 201.767 136.753 201.9 136.272 201.977 C 135.776 202.039 135.287 202.046 134.806 202 C 134.31 201.939 133.828 201.823 133.363 201.651 C 132.898 201.481 132.456 201.265 132.037 200.999 C 131.618 200.72 131.246 200.394 130.92 200.022 C 130.58 199.666 130.292 199.264 130.059 198.812 C 129.812 198.379 129.626 197.921 129.501 197.439 C 129.377 196.96 129.307 196.471 129.291 195.973 C 129.291 195.478 129.347 194.989 129.454 194.508 C 129.563 194.012 129.733 193.547 129.966 193.111 C 130.185 192.662 130.292 192.437 130.292 192.437 Z" style="" transform="matrix(0.583679, 0.811985, -0.811985, 0.583679, 234.280857, -82.197625)"></path>
  <path fill="#293241" d="M 206.29 196.087 C 206.29 196.087 206.809 196.49 207.849 197.297 C 208.887 198.105 209.369 199.71 209.292 202.114 C 209.199 204.518 208.624 206.721 207.57 208.722 C 206.514 210.707 205.583 212.654 204.778 214.562 C 203.954 216.454 202.97 218.674 201.823 221.217 C 200.66 223.746 199.782 226.12 199.194 228.337 C 198.589 230.555 198.114 232.549 197.774 234.317 C 197.432 236.069 197.13 238.196 196.867 240.693 C 196.588 243.189 196.346 245.456 196.146 247.487 C 195.943 249.518 195.913 251.901 196.052 254.63 C 196.192 257.376 196.276 259.889 196.308 262.169 C 196.322 264.45 196.339 266.551 196.355 268.475 C 196.369 270.399 196.378 272.251 196.378 274.036 C 196.392 275.821 196.315 277.713 196.146 279.714 C 195.973 281.715 195.664 283.709 195.215 285.694 C 194.749 287.664 194.268 289.563 193.772 291.394 C 193.274 293.225 192.686 295.35 192.004 297.77 C 191.306 300.173 190.654 302.44 190.049 304.564 C 189.444 306.689 188.597 308.922 187.513 311.265 C 186.426 313.608 185.154 315.819 183.697 317.897 C 182.222 319.961 178.678 321.061 173.063 321.201 C 167.446 321.341 164.491 321.341 164.198 321.201 C 163.903 321.061 163.63 320.875 163.384 320.642 C 163.151 320.426 162.956 320.17 162.802 319.875 C 162.646 319.579 162.546 319.27 162.5 318.944 C 162.453 318.618 162.453 318.292 162.5 317.967 C 162.56 317.641 162.669 317.331 162.825 317.036 C 162.979 316.757 163.174 316.501 163.407 316.268 C 163.654 316.052 163.926 315.872 164.221 315.733 C 164.531 315.593 164.85 315.507 165.175 315.477 C 165.501 315.447 165.827 315.461 166.153 315.523 C 166.462 315.6 166.758 315.726 167.037 315.896 C 167.33 316.066 167.579 316.275 167.781 316.524 C 167.998 316.787 168.168 317.066 168.293 317.362 C 168.4 317.671 168.463 317.99 168.48 318.316 C 168.494 318.658 168.463 318.983 168.386 319.293 C 168.293 319.619 168.154 319.914 167.968 320.177 C 167.781 320.456 167.556 320.689 167.293 320.875 C 167.028 321.078 166.741 321.231 166.432 321.341 C 166.106 321.434 165.78 321.48 165.455 321.48 C 165.129 321.48 164.81 321.427 164.501 321.317 C 164.189 321.208 163.903 321.054 163.64 320.852 C 163.374 320.649 163.151 320.417 162.965 320.154 C 162.779 319.875 162.646 319.579 162.569 319.27 C 162.476 318.944 162.444 318.618 162.476 318.292 C 162.49 317.967 162.56 317.648 162.686 317.338 C 162.809 317.029 162.979 316.75 163.198 316.501 C 163.414 316.252 163.663 316.042 163.942 315.872 C 164.221 315.703 164.524 315.586 164.85 315.523 C 165.175 315.461 165.501 315.447 165.827 315.477 C 166.153 315.507 166.316 315.523 166.316 315.523 C 166.316 315.523 166.432 314.646 166.665 312.894 C 166.911 311.126 167.842 308.985 169.457 306.472 C 171.086 303.975 172.209 301.663 172.831 299.538 C 173.45 297.414 174.101 295.194 174.785 292.883 C 175.467 290.573 176.049 288.563 176.53 286.857 C 176.996 285.135 177.468 283.018 177.95 280.505 C 178.415 277.992 178.648 275.851 178.648 274.083 C 178.662 272.298 178.671 270.46 178.671 268.568 C 178.671 266.66 178.655 263.907 178.625 260.308 C 178.592 256.694 178.555 253.863 178.508 251.815 C 178.445 249.767 178.515 247.843 178.718 246.044 C 178.918 244.26 179.09 242.461 179.229 240.646 C 179.353 238.848 179.616 236.737 180.021 234.317 C 180.423 231.914 180.965 229.461 181.649 226.964 C 182.331 224.482 182.936 222.397 183.464 220.705 C 184.006 219 184.914 216.78 186.187 214.051 C 187.457 211.305 188.979 208.473 190.747 205.558 C 192.516 202.642 193.756 200.625 194.47 199.508 C 195.182 198.407 195.531 197.639 195.517 197.204 C 195.501 196.785 195.531 196.36 195.61 195.925 C 195.703 195.489 195.843 195.08 196.029 194.691 C 196.215 194.289 196.439 193.917 196.704 193.574 C 196.983 193.232 197.3 192.93 197.658 192.667 C 197.998 192.404 198.37 192.185 198.775 192.015 C 199.177 191.846 199.596 191.72 200.031 191.643 C 200.464 191.566 200.899 191.55 201.334 191.597 C 201.767 191.627 202.195 191.713 202.614 191.853 C 203.033 191.976 203.428 192.155 203.801 192.388 C 204.173 192.62 204.506 192.9 204.801 193.225 C 205.111 193.535 205.374 193.877 205.592 194.249 C 205.809 194.638 205.979 195.04 206.104 195.459 C 206.228 195.878 206.29 196.087 206.29 196.087 Z" style="" transform="matrix(0.583679, 0.811985, -0.811985, 0.583679, 285.681248, -44.136365)"></path>
  <path fill="#293241" d="M 72.135 237.987 C 72.135 237.987 72.779 238.917 74.066 240.779 C 75.369 242.624 77.131 244.362 79.348 245.991 C 81.582 247.62 84.032 248.976 86.701 250.063 C 89.37 251.147 92.937 251.599 97.404 251.412 C 101.872 251.226 105.346 250.938 107.828 250.551 C 110.311 250.179 112.685 249.76 114.949 249.295 C 117.229 248.813 119.316 248.192 121.208 247.434 C 123.099 246.656 124.821 245.889 126.373 245.13 C 127.909 244.369 131.592 243.943 137.426 243.85 C 143.259 243.741 146.337 243.687 146.663 243.687 C 147.005 243.701 147.331 243.764 147.64 243.873 C 147.95 243.981 148.229 244.136 148.478 244.339 C 148.741 244.539 148.967 244.772 149.153 245.037 C 149.339 245.316 149.472 245.609 149.548 245.921 C 149.642 246.247 149.681 246.573 149.665 246.898 C 149.635 247.224 149.555 247.541 149.432 247.852 C 149.309 248.162 149.137 248.441 148.92 248.69 C 148.704 248.937 148.455 249.146 148.176 249.318 C 147.896 249.472 147.594 249.588 147.268 249.667 C 146.942 249.728 146.617 249.744 146.291 249.714 C 145.965 249.667 145.656 249.574 145.36 249.435 C 145.065 249.295 144.795 249.109 144.546 248.876 C 144.313 248.657 144.12 248.401 143.964 248.108 C 143.808 247.813 143.708 247.503 143.662 247.178 C 143.615 246.852 143.615 246.526 143.662 246.2 C 143.724 245.875 143.831 245.563 143.987 245.27 C 144.143 244.99 144.343 244.734 144.592 244.502 C 144.825 244.283 145.097 244.106 145.407 243.967 C 145.702 243.827 146.012 243.741 146.337 243.711 C 146.663 243.678 146.989 243.701 147.315 243.78 C 147.64 243.841 147.943 243.967 148.222 244.153 C 148.501 244.323 148.75 244.532 148.967 244.781 C 149.169 245.028 149.332 245.307 149.455 245.619 C 149.579 245.928 149.649 246.247 149.665 246.573 C 149.681 246.898 149.642 247.224 149.548 247.55 C 149.455 247.859 149.316 248.155 149.13 248.434 C 148.944 248.697 148.718 248.93 148.455 249.132 C 148.192 249.332 147.903 249.481 147.594 249.574 C 147.268 249.681 147.105 249.737 147.105 249.737 C 147.105 249.737 146.112 250.947 144.127 253.367 C 142.156 255.787 140.318 257.446 138.612 258.346 C 136.907 259.231 135.029 260.138 132.981 261.069 C 130.95 261.983 128.554 262.907 125.792 263.838 C 123.046 264.752 120.363 265.45 117.741 265.932 C 115.118 266.411 112.303 266.839 109.294 267.212 C 106.286 267.584 103.145 267.817 99.871 267.91 C 96.597 268.003 93.495 267.947 90.563 267.747 C 87.632 267.528 84.856 266.979 82.233 266.095 C 79.611 265.21 77.354 264.163 75.462 262.953 C 73.585 261.757 71.763 260.44 69.994 258.998 C 68.242 257.555 66.451 255.771 64.619 253.646 C 62.774 251.536 61.532 249.332 60.896 247.038 C 60.261 244.725 59.866 243.315 59.71 242.803 C 59.54 242.291 59.437 241.77 59.407 241.244 C 59.361 240.716 59.384 240.188 59.477 239.662 C 59.57 239.117 59.726 238.599 59.942 238.103 C 60.159 237.621 60.431 237.163 60.757 236.73 C 61.083 236.295 61.462 235.916 61.897 235.59 C 62.316 235.248 62.765 234.962 63.246 234.729 C 63.742 234.51 64.254 234.347 64.782 234.24 C 65.31 234.147 65.836 234.108 66.364 234.124 C 66.907 234.154 67.435 234.247 67.947 234.403 C 68.459 234.557 68.947 234.776 69.413 235.055 C 69.878 235.334 70.304 235.66 70.692 236.032 C 71.081 236.404 71.414 236.823 71.693 237.289 C 71.988 237.754 72.135 237.987 72.135 237.987 Z" style="" transform="matrix(0.583679, 0.811985, -0.811985, 0.583679, 247.354771, 19.63835)"></path>
  <path fill="#293241" d="M 160.678 180.547 C 160.678 180.547 161.578 180.191 163.377 179.476 C 165.192 178.764 167.365 179.034 169.892 180.291 C 172.421 181.547 173.91 183.711 174.359 186.782 C 174.825 189.84 174.336 192.406 172.894 194.484 C 171.451 196.578 169.24 197.735 166.262 197.951 C 163.3 198.154 160.95 197.618 159.212 196.346 C 157.46 195.075 156.35 193.353 155.884 191.18 C 155.405 188.979 156.948 187.916 160.515 187.992 C 164.084 188.055 165.713 188.155 165.401 188.295 C 165.108 188.435 164.796 188.521 164.47 188.551 C 164.131 188.583 163.805 188.56 163.493 188.481 C 163.167 188.404 162.865 188.281 162.586 188.109 C 162.306 187.923 162.067 187.706 161.864 187.457 C 161.664 187.211 161.501 186.931 161.376 186.62 C 161.269 186.31 161.206 185.991 161.19 185.666 C 161.176 185.34 161.213 185.014 161.306 184.688 C 161.399 184.379 161.539 184.083 161.725 183.804 C 161.911 183.541 162.13 183.309 162.376 183.106 C 162.656 182.92 162.951 182.773 163.26 182.664 C 163.572 182.571 163.889 182.524 164.214 182.524 C 164.54 182.524 164.866 182.58 165.192 182.687 C 165.504 182.797 165.783 182.959 166.029 183.176 C 166.295 183.378 166.518 183.611 166.704 183.874 C 166.876 184.153 167.007 184.456 167.1 184.781 C 167.179 185.093 167.209 185.41 167.193 185.735 C 167.163 186.077 167.086 186.396 166.96 186.689 C 166.837 187.001 166.667 187.28 166.448 187.527 C 166.232 187.776 165.983 187.985 165.704 188.155 C 165.41 188.311 165.099 188.428 164.773 188.504 C 164.463 188.567 164.138 188.574 163.796 188.528 C 163.47 188.497 163.16 188.404 162.865 188.248 C 162.572 188.109 162.306 187.923 162.074 187.69 C 161.857 187.474 161.671 187.218 161.515 186.922 C 161.362 186.629 161.259 186.317 161.213 185.991 C 161.166 185.666 161.176 185.34 161.236 185.014 C 161.299 184.688 161.408 184.379 161.562 184.083 C 161.718 183.804 161.911 183.548 162.144 183.315 C 162.376 183.099 162.493 182.99 162.493 182.99 C 162.493 182.99 163.789 183.697 166.378 185.107 C 168.971 186.52 168.891 187.085 166.146 186.806 C 163.4 186.527 162.804 187.583 164.354 189.97 C 165.906 192.33 166.146 193.47 165.075 193.391 C 164.005 193.314 163.214 193.307 162.702 193.367 C 162.19 193.414 161.678 193.4 161.166 193.321 C 160.64 193.244 160.136 193.104 159.654 192.902 C 159.158 192.716 158.7 192.469 158.281 192.157 C 157.862 191.864 157.483 191.515 157.141 191.11 C 156.801 190.708 156.513 190.273 156.28 189.807 C 156.047 189.342 155.877 188.853 155.768 188.341 C 155.645 187.83 155.591 187.311 155.605 186.782 C 155.622 186.257 155.698 185.735 155.838 185.223 C 155.978 184.728 156.173 184.246 156.42 183.781 C 156.669 183.332 156.971 182.913 157.327 182.524 C 157.685 182.138 158.088 181.803 158.537 181.524 C 158.972 181.231 159.438 180.998 159.933 180.826 C 160.431 180.64 160.678 180.547 160.678 180.547 Z" style="" transform="matrix(0.583679, 0.811985, -0.811985, 0.583679, 221.812931, -55.537629)"></path>
  <path fill="#293241" d="M 183.418 217.129 C 183.418 217.129 183.737 216.524 184.372 215.314 C 185.023 214.12 186.233 213.127 188.002 212.336 C 189.77 211.545 191.904 211.577 194.4 212.429 C 196.883 213.283 198.728 214.679 199.938 216.617 C 201.134 218.558 201.576 220.559 201.265 222.62 C 200.939 224.684 199.775 226.622 197.774 228.437 C 195.79 230.285 194.168 229.78 192.911 226.925 C 191.655 224.102 190.919 222.816 190.701 223.062 C 190.468 223.295 190.205 223.481 189.91 223.621 C 189.616 223.777 189.305 223.877 188.979 223.923 C 188.653 223.97 188.327 223.97 188.002 223.923 C 187.692 223.863 187.39 223.753 187.094 223.597 C 186.815 223.428 186.559 223.225 186.326 222.993 C 186.11 222.746 185.931 222.474 185.791 222.178 C 185.668 221.869 185.591 221.55 185.558 221.224 C 185.528 220.898 185.551 220.573 185.628 220.247 C 185.707 219.921 185.831 219.619 186.001 219.339 C 186.173 219.06 186.389 218.821 186.652 218.618 C 186.901 218.402 187.18 218.239 187.49 218.129 C 187.802 218.006 188.111 217.936 188.42 217.92 C 188.746 217.92 189.072 217.967 189.398 218.06 C 189.71 218.153 189.996 218.292 190.259 218.478 C 190.538 218.665 190.771 218.89 190.957 219.153 C 191.159 219.419 191.306 219.712 191.399 220.037 C 191.508 220.349 191.555 220.666 191.538 220.991 C 191.538 221.317 191.485 221.636 191.376 221.945 C 191.268 222.257 191.113 222.543 190.91 222.806 C 190.71 223.072 190.468 223.288 190.189 223.458 C 189.91 223.644 189.616 223.777 189.305 223.853 C 188.979 223.947 188.653 223.979 188.327 223.947 C 188.018 223.933 187.708 223.863 187.397 223.737 C 187.087 223.597 186.808 223.421 186.559 223.202 C 186.312 222.986 186.11 222.737 185.954 222.457 C 185.784 222.178 185.668 221.876 185.605 221.55 C 185.545 221.224 185.528 220.898 185.558 220.573 C 185.605 220.247 185.698 219.937 185.838 219.642 C 185.977 219.349 186.047 219.2 186.047 219.2 C 186.047 219.2 186.103 219.116 186.21 218.944 C 186.303 218.774 186.848 219.635 187.839 221.527 C 188.802 223.404 190.315 224.475 192.376 224.738 C 194.44 224.987 194.991 225.312 194.028 225.715 C 193.067 226.12 192.385 226.483 191.981 226.809 C 191.562 227.12 191.113 227.383 190.631 227.6 C 190.166 227.802 189.677 227.949 189.165 228.042 C 188.639 228.151 188.127 228.181 187.629 228.135 C 187.103 228.105 186.592 228.011 186.094 227.856 C 185.598 227.702 185.126 227.493 184.674 227.227 C 184.225 226.964 183.813 226.655 183.441 226.297 C 183.069 225.924 182.752 225.515 182.487 225.063 C 182.208 224.614 181.991 224.142 181.836 223.644 C 181.682 223.148 181.589 222.637 181.556 222.108 C 181.526 221.582 181.556 221.061 181.649 220.549 C 181.759 220.037 181.915 219.542 182.115 219.06 C 182.333 218.595 182.603 218.153 182.929 217.734 C 183.255 217.331 183.418 217.129 183.418 217.129 Z" style="" transform="matrix(0.583679, 0.811985, -0.811985, 0.583679, 258.866825, -63.597501)"></path>
  <path fill="#293241" d="M 152.692 212.329 C 152.692 212.329 153.102 213.299 153.925 215.237 C 154.747 217.192 155.033 219.06 154.786 220.845 C 154.553 222.63 154.414 223.567 154.367 223.66 C 154.321 223.737 154.165 224.095 153.902 224.731 C 153.637 225.352 153.311 225.934 152.925 226.476 C 152.52 227.018 152.054 227.507 151.529 227.942 C 151.017 228.377 150.449 228.74 149.83 229.035 C 149.225 229.331 148.597 229.547 147.945 229.687 C 147.294 229.826 146.633 229.88 145.967 229.85 C 145.283 229.833 144.618 229.733 143.966 229.547 C 143.315 229.361 142.694 229.105 142.105 228.779 C 141.514 228.454 140.979 228.058 140.499 227.593 C 140.002 227.127 139.569 226.608 139.196 226.034 C 138.838 225.459 138.552 224.854 138.335 224.219 C 138.117 223.584 137.977 222.932 137.917 222.264 C 137.854 221.582 137.87 220.908 137.963 220.24 C 138.07 219.572 139.064 218.627 140.942 217.401 C 142.803 216.175 143.678 215.407 143.571 215.098 C 143.461 214.788 143.408 214.476 143.408 214.167 C 143.408 213.825 143.461 213.499 143.571 213.19 C 143.664 212.88 143.811 212.592 144.013 212.329 C 144.213 212.066 144.446 211.84 144.711 211.654 C 144.974 211.468 145.269 211.328 145.595 211.235 C 145.905 211.142 146.23 211.102 146.572 211.119 C 146.898 211.135 147.208 211.205 147.503 211.328 C 147.796 211.437 148.076 211.6 148.341 211.817 C 148.587 212.019 148.797 212.266 148.969 212.561 C 149.139 212.841 149.262 213.136 149.341 213.446 C 149.418 213.771 149.441 214.097 149.411 214.423 C 149.379 214.732 149.295 215.044 149.155 215.354 C 149.016 215.649 148.836 215.919 148.62 216.168 C 148.387 216.401 148.122 216.594 147.829 216.75 C 147.55 216.906 147.254 217.013 146.945 217.075 C 146.619 217.138 146.293 217.138 145.967 217.075 C 145.642 217.029 145.33 216.929 145.037 216.773 C 144.741 216.633 144.478 216.44 144.246 216.191 C 144.027 215.959 143.85 215.696 143.71 215.4 C 143.555 215.105 143.461 214.795 143.431 214.469 C 143.399 214.144 143.415 213.825 143.478 213.515 C 143.538 213.19 143.655 212.887 143.827 212.608 C 143.997 212.312 144.206 212.056 144.455 211.84 C 144.702 211.638 144.981 211.468 145.293 211.328 C 145.586 211.205 145.905 211.135 146.247 211.119 C 146.572 211.102 146.882 211.135 147.177 211.212 C 147.503 211.305 147.796 211.444 148.062 211.631 C 148.341 211.8 148.581 212.019 148.783 212.282 C 148.983 212.545 149.085 212.678 149.085 212.678 C 149.085 212.678 149.953 214.523 151.691 218.216 C 153.427 221.922 154.165 224.095 153.902 224.731 C 153.637 225.352 153.311 225.934 152.925 226.476 C 152.52 227.018 152.054 227.507 151.529 227.942 C 151.017 228.377 150.449 228.74 149.83 229.035 C 149.225 229.331 148.597 229.547 147.945 229.687 C 147.294 229.826 146.633 229.88 145.967 229.85 C 145.283 229.833 144.618 229.733 143.966 229.547 C 143.315 229.361 142.694 229.105 142.105 228.779 C 141.514 228.454 140.979 228.058 140.499 227.593 C 140.002 227.127 139.569 226.608 139.196 226.034 C 138.838 225.459 138.552 224.854 138.335 224.219 C 138.117 223.584 137.977 222.932 137.917 222.264 C 137.854 221.582 137.87 220.908 137.963 220.24 C 138.07 219.572 138.249 219.402 138.498 219.728 C 138.731 220.054 138.94 219.263 139.127 217.355 C 139.296 215.463 139.373 214.253 139.359 213.725 C 139.327 213.183 139.366 212.647 139.476 212.119 C 139.583 211.591 139.755 211.079 139.988 210.584 C 140.22 210.088 140.506 209.63 140.848 209.211 C 141.188 208.792 141.577 208.42 142.012 208.094 C 142.431 207.768 142.896 207.496 143.408 207.279 C 143.904 207.063 144.415 206.907 144.944 206.814 C 145.486 206.737 146.021 206.714 146.549 206.744 C 147.075 206.791 147.603 206.9 148.131 207.07 C 148.643 207.24 149.123 207.466 149.574 207.745 C 150.039 208.04 150.458 208.38 150.831 208.769 C 151.217 209.157 151.543 209.583 151.808 210.048 C 152.087 210.53 152.303 211.026 152.459 211.538 C 152.613 212.066 152.692 212.329 152.692 212.329 Z" style="" transform="matrix(0.583679, 0.811985, -0.811985, 0.583679, 238.191166, -27.973959)"></path>
  <path fill="#293241" d="M 152.978 216.096 C 152.978 216.096 153.716 216.189 155.189 216.375 C 156.631 216.577 158.223 217.655 159.959 219.609 C 161.713 221.58 162.697 223.667 162.914 225.868 C 163.133 228.088 162.597 230.229 161.308 232.291 C 160.038 234.354 158.316 235.89 156.143 236.898 C 153.972 237.907 151.861 238.233 149.814 237.875 C 147.752 237.535 145.961 236.774 144.439 235.595 C 142.936 234.417 143.462 231.469 146.021 226.753 C 148.597 222.039 150.046 219.695 150.372 219.726 C 150.698 219.742 151.017 219.819 151.326 219.958 C 151.622 220.084 151.894 220.254 152.141 220.47 C 152.39 220.689 152.599 220.936 152.769 221.215 C 152.925 221.51 153.041 221.82 153.118 222.146 C 153.181 222.457 153.188 222.783 153.141 223.123 C 153.095 223.449 153.002 223.76 152.862 224.054 C 152.722 224.349 152.536 224.605 152.303 224.821 C 152.071 225.054 151.808 225.25 151.512 225.403 C 151.219 225.543 150.907 225.636 150.582 225.682 C 150.256 225.729 149.93 225.729 149.604 225.682 C 149.279 225.622 148.976 225.506 148.697 225.333 C 148.404 225.18 148.148 224.977 147.929 224.728 C 147.696 224.512 147.52 224.249 147.394 223.937 C 147.254 223.644 147.17 223.332 147.138 223.006 C 147.124 222.681 147.154 222.355 147.231 222.029 C 147.31 221.703 147.433 221.401 147.603 221.122 C 147.775 220.843 147.992 220.603 148.255 220.4 C 148.504 220.184 148.783 220.021 149.092 219.912 C 149.404 219.788 149.721 219.726 150.046 219.726 C 150.372 219.712 150.698 219.749 151.024 219.842 C 151.336 219.935 151.622 220.075 151.885 220.261 C 152.164 220.447 152.397 220.68 152.583 220.959 C 152.785 221.224 152.932 221.51 153.025 221.82 C 153.134 222.132 153.181 222.457 153.164 222.797 C 153.164 223.123 153.111 223.442 153.002 223.751 C 152.878 224.063 152.715 224.342 152.513 224.589 C 152.313 224.838 152.071 225.054 151.792 225.24 C 151.512 225.412 151.219 225.543 150.907 225.636 C 150.582 225.715 150.419 225.752 150.419 225.752 C 150.419 225.752 150.884 225.194 151.815 224.077 C 152.746 222.946 152.32 223.006 150.535 224.263 C 148.736 225.519 148.457 226.878 149.697 228.335 C 150.94 229.794 151.173 230.299 150.395 229.847 C 149.621 229.398 148.976 229.066 148.464 228.847 C 147.969 228.63 147.503 228.358 147.068 228.032 C 146.619 227.707 146.223 227.334 145.881 226.916 C 145.542 226.497 145.246 226.041 144.997 225.543 C 144.765 225.047 144.595 224.542 144.485 224.03 C 144.378 223.488 144.332 222.946 144.346 222.402 C 144.362 221.859 144.448 221.324 144.602 220.796 C 144.758 220.27 144.967 219.765 145.23 219.284 C 145.509 218.804 145.835 218.369 146.207 217.981 C 146.579 217.578 146.998 217.229 147.464 216.933 C 147.929 216.64 148.418 216.408 148.93 216.235 C 149.458 216.066 149.993 215.956 150.535 215.91 C 151.08 215.863 151.622 215.879 152.164 215.956 C 152.708 216.049 152.978 216.096 152.978 216.096 Z" style="" transform="matrix(0.583679, 0.811985, -0.811985, 0.583679, 248.094517, -29.979451)"></path>
  <path fill="#293241" d="M 105.546 245.251 C 105.546 245.251 106.537 245.228 108.524 245.181 C 110.509 245.121 112.347 245.128 114.039 245.204 C 115.728 245.297 117.955 245.128 120.717 244.692 C 123.476 244.26 125.726 243.818 127.465 243.366 C 129.2 242.917 131.537 241.94 134.468 240.434 C 137.414 238.931 140.897 238.015 144.916 237.689 C 148.932 237.363 151.096 237.14 151.408 237.014 C 151.701 236.907 152.02 236.844 152.362 236.828 C 152.687 236.828 153.004 236.874 153.316 236.967 C 153.641 237.061 153.935 237.209 154.2 237.41 C 154.463 237.596 154.695 237.821 154.898 238.084 C 155.084 238.35 155.224 238.643 155.317 238.969 C 155.41 239.28 155.456 239.597 155.456 239.923 C 155.44 240.265 155.377 240.59 155.27 240.9 C 155.161 241.195 154.998 241.474 154.782 241.737 C 154.579 242.003 154.339 242.219 154.06 242.389 C 153.781 242.575 153.485 242.708 153.176 242.784 C 152.85 242.864 152.525 242.887 152.199 242.854 C 151.873 242.824 151.554 242.747 151.245 242.622 C 150.949 242.498 150.677 242.319 150.43 242.086 C 150.181 241.87 149.979 241.621 149.825 241.342 C 149.653 241.049 149.537 240.737 149.476 240.411 C 149.414 240.102 149.407 239.783 149.453 239.457 C 149.5 239.117 149.593 238.799 149.732 238.503 C 149.886 238.21 150.081 237.945 150.314 237.712 C 150.547 237.479 150.81 237.293 151.105 237.154 C 151.398 237 151.71 236.907 152.036 236.874 C 152.362 236.828 152.687 236.837 153.013 236.898 C 153.339 236.96 153.641 237.07 153.921 237.223 C 154.214 237.396 154.47 237.596 154.688 237.828 C 154.905 238.077 155.075 238.357 155.2 238.666 C 155.34 238.962 155.417 239.271 155.433 239.597 C 155.463 239.939 155.44 240.265 155.363 240.574 C 155.284 240.9 155.161 241.202 154.991 241.481 C 154.805 241.761 154.586 242.003 154.339 242.203 C 154.074 242.405 153.944 242.505 153.944 242.505 C 153.944 242.505 152.632 244.22 150.012 247.648 C 147.389 251.077 145.218 253.218 143.496 254.07 C 141.758 254.924 139.764 255.854 137.516 256.862 C 135.283 257.886 133.172 258.646 131.188 259.142 C 129.217 259.64 127.169 260.096 125.045 260.515 C 122.918 260.92 120.787 261.166 118.646 261.26 C 116.519 261.353 114.365 261.306 112.177 261.12 C 109.974 260.934 107.943 260.492 106.081 259.794 C 104.234 259.096 103.047 258.67 102.521 258.514 C 101.993 258.36 101.497 258.142 101.032 257.862 C 100.55 257.583 100.115 257.25 99.729 256.862 C 99.324 256.49 98.984 256.071 98.705 255.605 C 98.409 255.14 98.177 254.644 98.007 254.116 C 97.835 253.604 97.728 253.069 97.681 252.511 C 97.635 251.968 97.658 251.426 97.751 250.882 C 97.844 250.34 97.998 249.821 98.216 249.323 C 98.433 248.811 98.705 248.339 99.031 247.904 C 99.37 247.471 99.752 247.082 100.171 246.74 C 100.604 246.384 101.069 246.089 101.567 245.856 C 102.063 245.623 102.575 245.453 103.103 245.344 C 103.645 245.237 104.18 245.197 104.708 245.228 C 105.267 245.244 105.546 245.251 105.546 245.251 Z" style="" transform="matrix(0.583679, 0.811985, -0.811985, 0.583679, 254.927113, 0.929606)"></path>
  <path fill="#293241" d="M 272.617 235.683 C 272.617 235.683 273.322 234.706 274.734 232.751 C 276.13 230.813 278.192 229.231 280.923 228.005 C 283.669 226.781 286.182 225.943 288.462 225.492 C 290.757 225.026 293.232 225.166 295.885 225.91 C 298.551 226.655 300.708 227.967 302.354 229.843 C 303.982 231.72 304.974 234.064 305.332 236.87 C 305.672 239.662 305.658 242.052 305.285 244.036 C 304.927 246.037 303.764 247.955 301.795 249.784 C 299.824 251.599 298.824 252.669 298.793 252.995 C 298.747 253.32 298.654 253.632 298.514 253.925 C 298.358 254.221 298.165 254.484 297.933 254.717 C 297.7 254.949 297.435 255.145 297.141 255.298 C 296.846 255.438 296.536 255.531 296.211 255.577 C 295.885 255.624 295.559 255.617 295.233 255.554 C 294.908 255.508 294.605 255.401 294.326 255.228 C 294.03 255.075 293.774 254.872 293.558 254.623 C 293.339 254.377 293.163 254.105 293.023 253.809 C 292.897 253.5 292.82 253.181 292.79 252.855 C 292.758 252.529 292.781 252.204 292.86 251.878 C 292.937 251.568 293.069 251.273 293.256 250.994 C 293.425 250.731 293.642 250.491 293.907 250.272 C 294.154 250.072 294.433 249.916 294.745 249.807 C 295.054 249.684 295.373 249.621 295.699 249.621 C 296.025 249.607 296.35 249.644 296.676 249.737 C 296.986 249.83 297.272 249.97 297.537 250.156 C 297.816 250.358 298.049 250.584 298.235 250.831 C 298.435 251.096 298.584 251.382 298.677 251.692 C 298.77 252.017 298.817 252.343 298.817 252.669 C 298.8 252.995 298.738 253.313 298.631 253.623 C 298.521 253.935 298.365 254.221 298.165 254.484 C 297.946 254.733 297.7 254.949 297.421 255.135 C 297.155 255.308 296.862 255.438 296.536 255.531 C 296.211 255.61 295.885 255.633 295.559 255.601 C 295.233 255.587 294.915 255.508 294.605 255.368 C 294.31 255.245 294.037 255.075 293.791 254.856 C 293.542 254.64 293.339 254.384 293.186 254.088 C 293.014 253.809 292.897 253.507 292.837 253.181 C 292.774 252.855 292.744 252.692 292.744 252.692 C 292.744 252.692 292.122 250.784 290.882 246.968 C 289.626 243.122 289.835 241.16 291.51 241.081 C 293.17 241.021 292.814 241.253 290.44 241.779 C 288.067 242.291 285.824 243.022 283.716 243.967 C 281.589 244.914 280.318 245.519 279.9 245.781 C 279.465 246.061 279.006 246.279 278.527 246.433 C 278.061 246.589 277.573 246.689 277.061 246.735 C 276.579 246.782 276.091 246.759 275.595 246.666 C 275.097 246.589 274.618 246.449 274.152 246.247 C 273.687 246.061 273.252 245.814 272.849 245.502 C 272.444 245.209 272.081 244.867 271.756 244.478 C 271.444 244.076 271.181 243.65 270.965 243.199 C 270.746 242.75 270.583 242.277 270.476 241.779 C 270.383 241.284 270.343 240.788 270.36 240.29 C 270.374 239.778 270.453 239.283 270.592 238.801 C 270.732 238.322 270.932 237.863 271.197 237.428 C 271.444 236.979 271.739 236.577 272.081 236.218 C 272.437 235.862 272.617 235.683 272.617 235.683 Z" style="" transform="matrix(0.583679, 0.811985, -0.811985, 0.583679, 315.103063, -133.732637)"></path>
  <path fill="#293241" d="M 163.191 129.554 C 163.191 129.554 162.881 127.793 162.26 124.272 C 161.655 120.752 161.562 117.401 161.981 114.22 C 162.416 111.056 163.114 108.271 164.075 105.867 C 165.052 103.463 166.69 101.283 168.984 99.329 C 171.281 97.374 173.638 96.171 176.058 95.722 C 178.494 95.287 181.303 96.343 184.481 98.887 C 187.662 101.43 189.407 102.765 189.717 102.889 C 190.028 103.012 190.308 103.175 190.554 103.377 C 190.803 103.594 191.013 103.843 191.182 104.122 C 191.355 104.401 191.478 104.704 191.555 105.029 C 191.634 105.355 191.648 105.681 191.601 106.007 C 191.571 106.332 191.485 106.642 191.345 106.937 C 191.222 107.247 191.043 107.519 190.81 107.752 C 190.577 108.001 190.321 108.201 190.042 108.357 C 189.749 108.513 189.437 108.613 189.112 108.659 C 188.786 108.722 188.46 108.722 188.134 108.659 C 187.809 108.613 187.499 108.513 187.204 108.357 C 186.91 108.201 186.654 108.008 186.436 107.775 C 186.203 107.526 186.017 107.256 185.877 106.961 C 185.738 106.665 185.654 106.356 185.621 106.03 C 185.575 105.704 185.591 105.378 185.668 105.053 C 185.731 104.727 185.847 104.424 186.017 104.145 C 186.189 103.866 186.398 103.617 186.645 103.401 C 186.894 103.184 187.173 103.012 187.483 102.889 C 187.795 102.765 188.111 102.696 188.437 102.679 C 188.763 102.663 189.088 102.696 189.414 102.772 C 189.726 102.865 190.019 103.005 190.298 103.191 C 190.577 103.377 190.819 103.603 191.02 103.866 C 191.206 104.115 191.355 104.401 191.462 104.727 C 191.571 105.036 191.625 105.355 191.625 105.681 C 191.625 106.007 191.578 106.325 191.485 106.635 C 191.378 106.944 191.222 107.233 191.02 107.496 C 190.819 107.759 190.587 107.984 190.321 108.171 C 190.042 108.357 189.749 108.496 189.437 108.589 C 189.112 108.683 188.786 108.722 188.46 108.706 C 188.134 108.69 187.971 108.683 187.971 108.683 C 187.971 108.683 186.429 109.248 183.341 110.381 C 180.256 111.528 178.517 113.143 178.129 115.221 C 177.726 117.285 177.377 120.084 177.082 123.621 C 176.789 127.158 176.616 129.198 176.57 129.74 C 176.523 130.282 176.423 130.811 176.267 131.323 C 176.098 131.834 175.865 132.323 175.569 132.788 C 175.29 133.238 174.957 133.656 174.569 134.045 C 174.183 134.417 173.747 134.743 173.266 135.022 C 172.817 135.285 172.335 135.495 171.823 135.65 C 171.297 135.806 170.762 135.899 170.218 135.93 C 169.692 135.946 169.157 135.899 168.612 135.79 C 168.086 135.697 167.581 135.534 167.1 135.301 C 166.604 135.069 166.146 134.783 165.727 134.44 C 165.308 134.098 164.936 133.712 164.61 133.277 C 164.27 132.858 163.998 132.393 163.796 131.881 C 163.579 131.385 163.423 130.873 163.33 130.345 C 163.237 129.817 163.191 129.554 163.191 129.554 Z" style="" transform="matrix(0.583679, 0.811985, -0.811985, 0.583679, 167.565447, -95.256464)"></path>
  <path fill="#293241" d="M 378.932 291.615 C 378.932 291.615 378.49 290.279 377.605 287.613 C 376.737 284.944 376.326 281.873 376.372 278.399 C 376.435 274.922 376.744 271.642 377.303 268.556 C 377.861 265.469 378.606 262.46 379.537 259.528 C 380.467 256.61 381.554 253.695 382.794 250.779 C 384.02 247.847 385.323 245.062 386.703 242.426 C 388.069 239.773 389.698 237.167 391.59 234.608 C 393.481 232.048 395.708 229.489 398.268 226.929 C 400.827 224.384 403.1 222.406 405.085 220.996 C 407.07 219.584 409.211 218.497 411.507 217.738 C 413.804 216.977 416.47 216.901 419.512 217.506 C 422.567 218.111 425.096 219.165 427.097 220.67 C 429.098 222.159 430.859 223.865 432.379 225.789 C 433.884 227.727 435.171 229.829 436.241 232.095 C 437.312 234.359 438.11 236.749 438.638 239.262 C 439.166 241.758 439.522 244.201 439.708 246.591 C 439.894 248.964 440.027 251.375 440.104 253.827 C 440.181 256.261 440.237 258.302 440.267 259.947 C 440.297 261.606 438.638 263.158 435.287 264.601 C 431.937 266.043 430.355 266.625 430.541 266.346 C 430.727 266.067 430.953 265.825 431.215 265.624 C 431.478 265.422 431.767 265.275 432.076 265.182 C 432.386 265.073 432.705 265.019 433.03 265.019 C 433.356 265.003 433.675 265.05 433.984 265.159 C 434.31 265.266 434.606 265.422 434.869 265.624 C 435.131 265.811 435.357 266.043 435.543 266.322 C 435.729 266.585 435.862 266.881 435.939 267.207 C 436.032 267.516 436.072 267.835 436.055 268.161 C 436.039 268.5 435.969 268.819 435.846 269.115 C 435.736 269.424 435.574 269.71 435.357 269.976 C 435.141 270.222 434.892 270.432 434.613 270.604 C 434.333 270.774 434.031 270.897 433.705 270.976 C 433.396 271.037 433.077 271.053 432.751 271.023 C 432.409 270.99 432.093 270.906 431.797 270.767 C 431.502 270.627 431.232 270.448 430.983 270.232 C 430.75 269.999 430.557 269.734 430.401 269.44 C 430.245 269.161 430.138 268.859 430.075 268.533 C 430.012 268.207 430.012 267.881 430.075 267.556 C 430.122 267.23 430.222 266.918 430.378 266.625 C 430.534 266.329 430.727 266.074 430.959 265.857 C 431.208 265.624 431.478 265.438 431.774 265.299 C 432.069 265.159 432.379 265.066 432.705 265.019 C 433.03 264.987 433.356 265.003 433.682 265.066 C 434.008 265.143 434.31 265.266 434.589 265.438 C 434.869 265.608 435.118 265.818 435.334 266.067 C 435.55 266.313 435.722 266.592 435.846 266.904 C 435.969 267.197 436.039 267.509 436.055 267.835 C 436.072 268.175 436.039 268.5 435.962 268.812 C 435.869 269.138 435.823 269.301 435.823 269.301 C 435.823 269.301 433.589 267.4 429.121 263.6 C 424.654 259.814 422.397 256.82 422.35 254.619 C 422.32 252.415 422.204 249.832 422.001 246.87 C 421.799 243.906 421.217 241.379 420.256 239.285 C 419.295 237.205 417.96 236.034 416.254 235.771 C 414.532 235.492 412.64 236.274 410.576 238.121 C 408.499 239.983 406.73 241.788 405.271 243.543 C 403.829 245.295 402.495 247.273 401.269 249.476 C 400.043 251.694 398.873 254.044 397.756 256.527 C 396.655 259.007 395.701 261.38 394.894 263.647 C 394.103 265.894 393.451 268.161 392.939 270.441 C 392.444 272.721 392.101 275.048 391.915 277.421 C 391.745 279.795 391.699 282.368 391.776 285.147 C 391.869 287.939 391.932 289.598 391.962 290.126 C 391.992 290.652 391.955 291.18 391.846 291.708 C 391.752 292.22 391.597 292.716 391.38 293.197 C 391.147 293.677 390.868 294.128 390.543 294.547 C 390.217 294.966 389.844 295.338 389.426 295.664 C 389.007 295.99 388.558 296.259 388.076 296.478 C 387.594 296.695 387.092 296.841 386.564 296.92 C 386.052 297.013 385.533 297.044 385.005 297.013 C 384.463 296.981 383.941 296.881 383.446 296.711 C 382.934 296.555 382.452 296.339 382.003 296.059 C 381.554 295.78 381.142 295.454 380.77 295.082 C 380.398 294.71 380.072 294.291 379.793 293.826 C 379.53 293.374 379.32 292.895 379.164 292.383 C 379.008 291.871 378.932 291.615 378.932 291.615 Z" style="" transform="matrix(0.93343, 0.358759, -0.358759, 0.93343, 119.405657, -129.375063)"></path>
  <path fill="#293241" d="M 419.861 275.353 C 419.861 275.353 420.116 274.322 420.628 272.258 C 421.14 270.211 421.987 267.884 423.165 265.278 C 424.344 262.658 425.329 260.531 426.12 258.902 C 426.927 257.273 427.851 255.575 428.889 253.806 C 429.912 252.054 431.169 250.402 432.658 248.85 C 434.147 247.301 435.832 245.998 437.707 244.941 C 439.585 243.904 441.633 243.282 443.85 243.08 C 446.07 242.88 448.085 243.05 449.9 243.592 C 451.701 244.136 453.669 245.3 455.81 247.082 C 457.951 248.883 459.549 250.875 460.603 253.062 C 461.66 255.249 462.365 257.283 462.721 259.158 C 463.063 261.036 463.302 262.874 463.442 264.673 C 463.568 266.474 463.482 268.628 463.186 271.141 C 462.893 273.671 462.358 275.997 461.581 278.122 C 460.822 280.249 458.479 282.682 454.554 285.428 C 450.644 288.19 448.56 289.679 448.294 289.896 C 448.048 290.114 447.768 290.277 447.457 290.384 C 447.147 290.51 446.828 290.58 446.503 290.594 C 446.177 290.61 445.86 290.57 445.549 290.477 C 445.223 290.384 444.93 290.245 444.665 290.058 C 444.385 289.872 444.146 289.649 443.943 289.384 C 443.757 289.121 443.61 288.835 443.501 288.523 C 443.394 288.213 443.348 287.894 443.361 287.569 C 443.361 287.229 443.417 286.903 443.524 286.591 C 443.634 286.282 443.79 285.996 443.99 285.731 C 444.192 285.484 444.425 285.265 444.688 285.079 C 444.967 284.893 445.262 284.753 445.572 284.66 C 445.898 284.583 446.223 284.553 446.549 284.567 C 446.875 284.6 447.194 284.676 447.503 284.8 C 447.815 284.925 448.094 285.088 448.341 285.288 C 448.59 285.507 448.799 285.763 448.969 286.056 C 449.141 286.336 449.258 286.638 449.318 286.964 C 449.381 287.276 449.397 287.601 449.365 287.941 C 449.318 288.267 449.225 288.579 449.085 288.872 C 448.946 289.167 448.769 289.43 448.55 289.663 C 448.318 289.912 448.055 290.114 447.759 290.268 C 447.466 290.407 447.154 290.51 446.828 290.57 C 446.503 290.617 446.177 290.61 445.851 290.547 C 445.525 290.501 445.223 290.4 444.944 290.245 C 444.651 290.075 444.385 289.872 444.153 289.64 C 443.936 289.393 443.757 289.121 443.617 288.825 C 443.478 288.532 443.394 288.22 443.361 287.894 C 443.331 287.555 443.354 287.229 443.431 286.917 C 443.51 286.591 443.634 286.289 443.804 286.01 C 443.976 285.731 444.06 285.591 444.06 285.591 C 444.06 285.591 443.843 284.351 443.408 281.868 C 442.989 279.402 443.268 277.191 444.246 275.237 C 445.223 273.268 445.828 270.971 446.061 268.349 C 446.293 265.729 446.014 263.626 445.223 262.043 C 444.448 260.461 443.285 260.959 441.733 263.533 C 440.183 266.108 438.74 268.668 437.405 271.211 C 436.055 273.771 434.838 275.951 433.752 277.75 C 432.651 279.55 431.969 280.681 431.704 281.147 C 431.441 281.612 431.122 282.04 430.75 282.426 C 430.394 282.815 429.992 283.157 429.54 283.45 C 429.091 283.729 428.609 283.962 428.097 284.148 C 427.602 284.32 427.09 284.428 426.562 284.474 C 426.036 284.521 425.508 284.507 424.98 284.428 C 424.454 284.334 423.942 284.188 423.444 283.985 C 422.965 283.785 422.506 283.52 422.071 283.194 C 421.638 282.885 421.25 282.52 420.908 282.101 C 420.568 281.698 420.279 281.256 420.047 280.774 C 419.814 280.295 419.644 279.79 419.535 279.262 C 419.428 278.75 419.381 278.224 419.395 277.68 C 419.411 277.154 419.498 276.633 419.651 276.121 C 419.791 275.609 419.861 275.353 419.861 275.353 Z" style="" transform="matrix(0.93343, 0.358759, -0.358759, 0.93343, 125.103754, -140.611727)"></path>
  <g transform="matrix(2.17193, 0.83477, -0.83477, 2.17193, 460.817573, 302.480962)" stroke="none" style="">
    <path fill="#293241" d="M -12.55,-6.63 Q -12.55,-6.63 -11.73,-7.58 -10.90,-8.53 -9.36,-9.59 -7.82,-10.64 -6.48,-10.86 -5.15,-11.08 -3.81,-10.86 -2.48,-10.65 -1.25,-10.11 -0.02,-9.57 1.10,-8.55 2.24,-7.52 3.00,-6.53 3.76,-5.54 4.36,-4.14 4.96,-2.74 5.24,-0.87 5.51,0.99 5.49,2.58 5.48,4.17 5.12,6.01 4.76,7.86 4.13,9.59 3.51,11.32 2.47,13.38 1.43,15.45 0.41,17.03 -0.60,18.62 -1.86,20.14 -3.11,21.65 -4.74,23.07 -6.37,24.48 -7.99,25.55 -9.61,26.61 -11.11,27.41 -12.60,28.21 -16.08,26.93 -19.56,25.65 -19.73,25.53 -19.90,25.41 -20.03,25.24 -20.16,25.07 -20.22,24.86 -20.29,24.66 -20.29,24.45 -20.28,24.24 -20.21,24.04 -20.14,23.84 -20.01,23.67 -19.88,23.50 -19.70,23.38 -19.53,23.27 -19.32,23.21 -19.12,23.16 -18.90,23.17 -18.69,23.19 -18.49,23.27 -18.30,23.35 -18.14,23.49 -17.98,23.63 -17.87,23.81 -17.76,23.99 -17.72,24.20 -17.68,24.41 -17.70,24.62 -17.73,24.83 -17.82,25.02 -17.91,25.22 -18.06,25.37 -18.21,25.52 -18.40,25.62 -18.59,25.72 -18.80,25.75 -19.01,25.78 -19.21,25.74 -19.42,25.70 -19.61,25.60 -19.80,25.50 -19.94,25.35 -20.09,25.19 -20.17,25.00 -20.26,24.80 -20.28,24.59 -20.30,24.38 -20.25,24.17 -20.20,23.96 -20.09,23.78 -19.98,23.60 -19.82,23.47 -19.65,23.33 -19.45,23.26 -19.26,23.18 -19.04,23.17 -18.83,23.16 -18.63,23.22 -18.42,23.28 -18.42,23.28 -18.42,23.28 -17.26,22.31 -16.10,21.33 -14.94,20.73 -13.78,20.13 -12.55,19.37 -11.32,18.60 -10.14,17.65 -8.96,16.69 -7.98,15.56 -7.00,14.43 -6.17,13.19 -5.34,11.95 -4.46,10.29 -3.58,8.63 -3.10,7.43 -2.62,6.23 -2.33,5.08 -2.03,3.92 -1.97,2.84 -1.91,1.75 -2.04,0.21 -2.16,-1.33 -3.10,-2.55 -4.04,-3.76 -5.27,-3.67 -6.50,-3.57 -7.54,-2.87 -8.58,-2.16 -8.87,-1.96 -9.17,-1.75 -9.51,-1.63 -9.84,-1.50 -10.20,-1.45 -10.56,-1.41 -10.92,-1.45 -11.27,-1.50 -11.61,-1.62 -11.95,-1.75 -12.24,-1.95 -12.54,-2.16 -12.78,-2.43 -13.02,-2.70 -13.19,-3.02 -13.35,-3.33 -13.44,-3.68 -13.53,-4.03 -13.53,-4.39 -13.53,-4.75 -13.44,-5.10 -13.36,-5.45 -13.19,-5.77 -13.02,-6.09 -12.79,-6.36 -12.55,-6.63 -12.55,-6.63 L -12.55,-6.63 Z"></path>
  </g>
</svg>